# xmcd CD database file
#
# Track frame offsets:
#	150
#	15587
#	27726
#	40057
#	61608
#	76245
#	101895
#	119917
#	141972
#	192945
#
# Disc length: 2906 seconds
#
# Revision: 0
# Processed by: cddbd v1.4PL0 Copyright (c) Steve Scherf et al.
# Submitted via: Feurio! 1.61 - http://www.feurio.com
#
DISCID=880b580a
DTITLE=Jimi Hendrix - Jimi Hendrix
DYEAR=1900
DGENRE=
TTITLE0=Hey, Joe
TTITLE1=She's A Fox
TTITLE2=Purple Haze
TTITLE3=Hey Le Roy
TTITLE4=Foxy Lady
TTITLE5=Free Spirit
TTITLE6=All Along The Watchtower
TTITLE7=Something You Got
TTITLE8=Let The God Sing
TTITLE9=House Of Rising Sun
EXTD=
EXTT0=
EXTT1=
EXTT2=
EXTT3=
EXTT4=
EXTT5=
EXTT6=
EXTT7=
EXTT8=
EXTT9=
PLAYORDER=
